<svg width="100" height="100" viewBox="0 0 100 100" fill="none" xmlns="http://www.w3.org/2000/svg">
    <path d="M63.47 67.692H40.437v6.088H63.47v-6.088zm-50.166 0h8.566a3.044 3.044 0 0 1 0 6.088H11.318c-.125 0-.249-.008-.37-.022a2.546 2.546 0 0 1-2.736-2.539V18.423a2.546 2.546 0 0 1 2.546-2.546c.036 0 .071 0 .106.002.148-.022.3-.034.454-.034H62.05a3.044 3.044 0 0 1 3.044 3.044v3.044H78.08c1.151 0 2.203.648 2.72 1.676l9.132 18.162-.006.003 5.676 7.31c.414.534.64 1.19.64 1.867v19.785a3.045 3.045 0 0 1-3.044 3.044H81.732a3.043 3.043 0 0 1 0-6.088h8.422V51.994l-4.433-5.71H62.05a3.044 3.044 0 0 1-3.044-3.044V21.933h-45.7v45.759zm51.79-27.496h17.23l-6.12-12.175h-11.11v12.175z" fill="#fff"/>
    <path d="M72.601 58.46c-6.714 0-12.175 5.462-12.175 12.175 0 6.713 5.461 12.175 12.175 12.175 6.715 0 12.175-5.462 12.175-12.175 0-6.714-5.46-12.176-12.175-12.176zm-41.599 0c-6.714 0-12.176 5.462-12.176 12.175 0 6.713 5.462 12.175 12.176 12.175 6.713 0 12.175-5.462 12.175-12.175 0-6.714-5.462-12.176-12.175-12.176zm41.6 18.262a6.094 6.094 0 0 1-6.089-6.087 6.094 6.094 0 0 1 6.088-6.088 6.094 6.094 0 0 1 6.088 6.088 6.094 6.094 0 0 1-6.088 6.087zm-41.6 0a6.093 6.093 0 0 1-6.088-6.087 6.094 6.094 0 0 1 6.088-6.088 6.094 6.094 0 0 1 6.087 6.088 6.093 6.093 0 0 1-6.087 6.087z" fill="#fff"/>
</svg>
