<svg width="100" height="100" viewBox="0 0 100 100" fill="none" xmlns="http://www.w3.org/2000/svg">
    <path d="M95.585 80.902 52.25 27.49a2.837 2.837 0 0 0-.241-3.228L48.473 19.9c6.47-4.822 10.907-6.096 20.627-6.445 2.832-.1 3.78-3.857 1.337-5.292-14.815-8.699-28.695-8.429-40.14.782l-12.078 9.721a2.845 2.845 0 0 0-.423 4.008 2.803 2.803 0 0 1-.432 3.97 2.857 2.857 0 0 1-4.006-.425 2.843 2.843 0 0 0-3.991-.428l-5.173 4.158a8.493 8.493 0 0 0-1.277 11.978l7.153 8.822c2.957 3.648 8.338 4.215 11.992 1.274l5.17-4.157a2.842 2.842 0 0 0 .429-4.005 2.812 2.812 0 0 1 .425-3.97 2.863 2.863 0 0 1 4.012.424 2.843 2.843 0 0 0 3.147.89l43.207 53.558c3.83 4.751 10.775 5.476 15.505 1.651a11.011 11.011 0 0 0 1.628-15.51zM39.778 37.77 47.94 31.2l6.19 7.631-8.186 6.58-6.166-7.642zm-18.385 3.42a8.459 8.459 0 0 0 .434 3.728l-3.328 2.675a2.864 2.864 0 0 1-4.013-.424l-7.152-8.822a2.812 2.812 0 0 1 .424-3.969l3.34-2.684c2.99 1.835 6.946 1.701 9.83-.62a8.497 8.497 0 0 0 2.7-9.464l10.233-8.236c7.235-5.822 15.473-7.307 24.578-4.45-5.704 1.264-10.09 3.715-15.784 8.3a2.842 2.842 0 0 0-.426 4.003l3.568 4.401-11.444 9.21c-5.358-3.28-12.3.145-12.96 6.352zm68.989 50.804a5.33 5.33 0 0 1-7.505-.8L49.513 49.836l8.2-6.59L91.17 84.484a5.33 5.33 0 0 1-.788 7.51z" fill="#fff"/>
</svg>
