<svg width="100" height="100" viewBox="0 0 100 100" fill="none" xmlns="http://www.w3.org/2000/svg">
    <path fill-rule="evenodd" clip-rule="evenodd"
        d="M80.142 6.717a8.68 8.68 0 0 0-12.274 0L7.185 67.4a8.678 8.678 0 0 0 0 12.275l14.503 14.503a8.68 8.68 0 0 0 12.275 0l60.683-60.682a8.68 8.68 0 0 0 0-12.275L80.142 6.717zM16.63 66.795l-5.025 5.024a2.433 2.433 0 0 0 0 3.436l14.504 14.504a2.43 2.43 0 0 0 3.436 0l60.682-60.683a2.426 2.426 0 0 0 0-3.436L75.723 11.137a2.43 2.43 0 0 0-3.436 0l-6.117 6.117 2.78 2.778a3.11 3.11 0 0 1 .91 2.197 3.11 3.11 0 0 1-.91 2.196h-.002a3.105 3.105 0 0 1-4.392 0l-2.779-2.778-3.13 3.13 2.777 2.78a3.106 3.106 0 1 1-4.393 4.393l-2.779-2.778-3.13 3.13 6.162 6.164a3.106 3.106 0 0 1-4.393 4.394l-6.163-6.164-3.132 3.132 2.78 2.778a3.11 3.11 0 0 1 0 4.393h-.002a3.105 3.105 0 0 1-4.392 0l-2.779-2.778-3.13 3.13 2.777 2.78a3.106 3.106 0 1 1-4.393 4.393l-2.779-2.778-3.13 3.13 2.778 2.78a3.105 3.105 0 0 1 0 4.392 3.106 3.106 0 0 1-4.394 0l-2.778-2.778-3.132 3.132 6.164 6.163a3.106 3.106 0 0 1-4.394 4.393l-6.163-6.163z"
        fill="#000" />
</svg>