<svg id="Warstwa_1" data-name="Warstwa 1" xmlns="http://www.w3.org/2000/svg" viewBox="0 0 400.64 96.07">
    <defs>
        <style>
            .cls-1 {
                fill: #e67817;
            }
        </style>
    </defs>
    <polygon fill="#fff"
        points="0 0 44.94 0 70.89 19.23 96.85 0 131.49 0 131.49 94.98 96.94 94.98 96.94 62.81 70.89 81.87 44.6 62.72 44.6 94.98 9.96 94.98 9.96 12.6 0 12.6 0 0" />
    <polygon class="cls-1"
        points="131.49 0 166.64 0 192.51 19.23 218.64 0 253.11 0 253.11 95.15 218.47 95.15 218.47 62.98 192.3 82.04 166.21 62.72 166.21 94.98 131.49 94.98 131.49 0" />
    <path fill="#fff"
        d="M325.87,86.89c-2.69-.33-3.1-3.83-3.1-3.83V46.72h8.38V39.4h-8.34V20.17l-8.43,5.53.23,13.7h-6.26v7.34h6s.19,36.67.35,40.09c.07,1.53,1.28,8.17,8.65,8.71s9-.8,9-.8l-1.23-8.1A23.32,23.32,0,0,1,325.87,86.89Z" />
    <rect x="392.21" y="18.43" width="8.43" height="76.55" fill="#fff" />
    <path fill="#fff"
        d="M361.22,45.77a11.07,11.07,0,0,1,5.85,1.91,7,7,0,0,1,3.2,4.06c.32,1.11.36,2.25.59,3.36a25.59,25.59,0,0,1,.19,4c-.32.16-.44.24-.57.29a45.2,45.2,0,0,1-7.18,1.81c-2.58.37-5.13.92-7.7,1.37-1.77.31-3.57.5-5.33.9a16.87,16.87,0,0,0-13.18,21.08,14.68,14.68,0,0,0,6.07,8.75A17.12,17.12,0,0,0,351.65,96a23.94,23.94,0,0,0,7.94-.7A22.89,22.89,0,0,0,368.22,91c1.1-.86,2.18-1.74,3.38-2.7a26.17,26.17,0,0,0,1.73,6.43,48.65,48.65,0,0,0,9,0c-.18-.49-.32-1-.54-1.46a20.09,20.09,0,0,1-1.7-6.74c-.23-2.23-.28-4.48-.31-6.72-.05-3.36,0-6.72,0-10.08-.11-5.75.27-11.5-.23-17.24a26.46,26.46,0,0,0-.64-4.08,12.11,12.11,0,0,0-5.31-7.54,20.8,20.8,0,0,0-9.73-3c-.95-.08-1.64-.18-2.59-.22-.29,0-.82,0-1.11,0-.72,0-1.54,0-2.24.08a30.37,30.37,0,0,0-3.71.51A27,27,0,0,0,346.37,41a14.63,14.63,0,0,0-5.88,6.29,23,23,0,0,0-2.45,7.8c2.81.37,5.57.94,8.29,1.22.5-1.46.9-2.77,1.41-4.05,1.23-3.12,3.34-5.33,6.74-6,1.58-.31,2.37-.32,4-.5m12.34,27.06a18.1,18.1,0,0,1-1.11,6.43,13,13,0,0,1-2.31,3.91,14.66,14.66,0,0,1-8.92,5,23.73,23.73,0,0,1-3.87.09,8.36,8.36,0,0,1-7.66-4.16,8.42,8.42,0,0,1,5.17-12.49c2.47-.66,5-1.08,7.53-1.52s4.81-1.06,7.19-1.69c1.37-.36,2.7-.88,4.22-1.39" />
    <path fill="#fff"
        d="M303.1,76.68a29.32,29.32,0,0,0-.56-3.5A9.59,9.59,0,0,0,300.39,69a13.59,13.59,0,0,0-4.25-3.58,46,46,0,0,0-6-2.41c-3.91-1.22-7.82-2.44-11.71-3.7-2-.64-3.91-1.29-5.33-2.94a5.32,5.32,0,0,1-1.3-4.92,6.79,6.79,0,0,1,4.65-5,18,18,0,0,1,5-.82,13.49,13.49,0,0,1,3.69.31,10.72,10.72,0,0,1,3.16,1.21,9.28,9.28,0,0,1,4.35,6.61l.19,1,4.48-.74,4.11-.8s-.95-3.6-1.53-5.3a12.07,12.07,0,0,0-4.51-6.45,22.55,22.55,0,0,0-6.89-3.11,34,34,0,0,0-6.77-.87l-2,.11a23.29,23.29,0,0,0-7.59,1.91,14.8,14.8,0,0,0-5.13,3.84,12.85,12.85,0,0,0-2.28,3.45,16.27,16.27,0,0,0-1.2,10.18,13.55,13.55,0,0,0,5.79,8.88,21.79,21.79,0,0,0,5.83,2.7c4.47,1.47,9,2.87,13.46,4.32a12.82,12.82,0,0,1,2.51,1,5.74,5.74,0,0,1,3,6.24,8.3,8.3,0,0,1-5.78,7,11.31,11.31,0,0,1-4.77.75c-.71-.06-1.44,0-2.16,0a11.49,11.49,0,0,1-5.65-1.77,10.7,10.7,0,0,1-4.44-5.8c-.39-1.27-.71-2.55-1.09-3.94l-8.44,1.53.08.5a27.12,27.12,0,0,0,3.15,9,16.25,16.25,0,0,0,6.8,6.37A25.3,25.3,0,0,0,281.41,96a27.64,27.64,0,0,0,7.25-.56,18.79,18.79,0,0,0,8.24-3.78,16.18,16.18,0,0,0,5.29-7.37,13.44,13.44,0,0,0,.94-5C303.09,78.41,303.19,77.53,303.1,76.68Z" />
</svg>