<svg width="32" height="32" viewBox="0 0 32 32" fill="none" xmlns="http://www.w3.org/2000/svg">
    <path d="m16.015 26.884-5.61-5.931 1.816-1.718 3.789 4.006 3.767-4.004 1.82 1.713-5.582 5.934zm10.36-2.384v-17c0-4.136-3.364-7.5-7.5-7.5h-5.75c-4.136 0-7.5 3.365-7.5 7.5v17c0 4.136 3.364 7.5 7.5 7.5h5.75c4.136 0 7.5-3.364 7.5-7.5zm-7.5-22c2.757 0 5 2.243 5 5v17c0 2.757-2.243 5-5 5h-5.75c-2.757 0-5-2.243-5-5v-17c0-2.757 2.243-5 5-5h5.75zM16 5.063a1.25 1.25 0 1 0 0 2.5 1.25 1.25 0 0 0 0-2.5zm0 5a1.25 1.25 0 1 0 0 2.5 1.25 1.25 0 0 0 0-2.5zm0 5a1.25 1.25 0 1 0 0 2.5 1.25 1.25 0 0 0 0-2.5z" fill="#fff"/>
</svg>
